<svg id="Capa_3" data-name="Capa 3" xmlns="http://www.w3.org/2000/svg" viewBox="0 0 284.26 284.26"><defs><style>.cls-1{fill:#fff;}.cls-2{fill:none;}</style></defs><path class="cls-1" d="M400.47,461l-5.45-.47a75.3,75.3,0,0,1-33.73-11.12c-19.5-12.11-32.06-29.41-36.41-51.95-5.19-26.86,1.8-50.61,20.64-70.57,11.58-12.26,25.92-19.71,42.47-22.84,2.78-.53,5.61-.77,8.42-1,.9-.09,1.13-.39,1.13-1.24q0-16.72,0-33.45a1.44,1.44,0,0,0-.91-1.46,11.92,11.92,0,0,1,6.55-22.37,12,12,0,0,1,10.89,9.69,11.88,11.88,0,0,1-5.9,12.59,1.69,1.69,0,0,0-1,1.74q0,16.6,0,33.2c0,.36,0,.71.05,1.11,1.87.21,3.69.39,5.49.62A76,76,0,0,1,447.57,317c17.57,12.5,28.75,29.32,32.44,50.61,4.58,26.38-2.43,49.57-20.81,69.07-11.75,12.47-26.31,20-43.15,23-3.71.66-7.53.77-11.29,1.15a4.06,4.06,0,0,0-.69.16Zm34.78-83.63A19.44,19.44,0,1,0,415.85,358,19.3,19.3,0,0,0,435.25,377.4Zm-65.57,0a19.45,19.45,0,1,0-19.48-19.46A19.49,19.49,0,0,0,369.68,377.4Zm25.2,59V409.7L383,408.07a2.83,2.83,0,0,0-.07.4q0,12,0,24a.94.94,0,0,0,.85,1.06Zm15.32-.08c3.72-1,7.2-1.93,10.7-2.81a1.42,1.42,0,0,0,1.24-1.65c-.05-7.55,0-15.1,0-22.64v-1.15l-11.91,1.61Zm-42.7-12a2.5,2.5,0,0,0,.13-.48c0-6.79,0-13.58,0-20.36a1.58,1.58,0,0,0-.77-1.12,62.08,62.08,0,0,1-14.77-10.48c-.27-.25-.56-.47-1.05-.89C351.54,404.79,357.33,415.57,367.5,424.33Zm69.88-.4c8.78-5.82,18.28-25.37,15.92-32.47a.64.64,0,0,0-.2.11,54.05,54.05,0,0,1-15.09,11,1.55,1.55,0,0,0-.6,1.21c-.05,3.39,0,6.78,0,10.17Z" transform="translate(-260.09 -193.83)"/><path class="cls-1" d="M279.12,353.26l1.41-5.46L289,350a55.67,55.67,0,0,1,22-29.55c-2.88,11.18-5.67,22-8.51,33l9.16,2.38c.78-3,1.54-5.88,2.29-8.8q4-15.54,8-31.1a1.56,1.56,0,0,1,1.22-1.25,43.3,43.3,0,0,1,23-.79c.47.12,1.15.51,1.22.87s-.42,1-.81,1.27c-3.23,2.47-6.68,4.69-9.71,7.38-7.61,6.76-12.9,15.18-16.61,24.58-5,12.59-7.72,25.63-7,39.24a52.92,52.92,0,0,0,7.28,24.87,11.46,11.46,0,0,1,.92,1.68c.16.4.3,1,.1,1.29s-.85.28-1.25.18a39.62,39.62,0,0,1-11.17-4.74,47.85,47.85,0,0,1-8.78-7,1.82,1.82,0,0,1-.51-2q5.12-19.65,10.19-39.31c.06-.23.08-.47.15-.87L301,358.93c-2.86,11.08-5.71,22.12-8.65,33.48a53,53,0,0,1-5.61-18.11,58.19,58.19,0,0,1,.81-18.82Z" transform="translate(-260.09 -193.83)"/><path class="cls-1" d="M493.63,320.41c10.91,7.4,17.92,17.33,22,29.54l8.48-2.16,1.42,5.46-8.44,2.22c2.46,12.75,1.24,25-4.82,37-2.92-11.33-5.77-22.34-8.66-33.51l-9.17,2.36c1.11,4.33,2.19,8.52,3.27,12.72,2.38,9.25,4.78,18.49,7.12,27.75a1.79,1.79,0,0,1-.33,1.44A42.35,42.35,0,0,1,485,415.08a8.72,8.72,0,0,1-1.92.08,6.17,6.17,0,0,1,.43-2,53.56,53.56,0,0,0,7.26-20,63.58,63.58,0,0,0,.43-16.59,128.77,128.77,0,0,0-2-13c-2.49-11.3-6.54-22-13.44-31.41a60,60,0,0,0-16.45-15.35,7.46,7.46,0,0,1-1.37-1c-.34-.33-.79-.89-.7-1.2a1.71,1.71,0,0,1,1.17-.82c1.87-.39,3.75-.78,5.65-1a44.16,44.16,0,0,1,17.14,1.65,2,2,0,0,1,1.6,1.63c3.29,12.92,6.65,25.82,10,38.73.07.26.17.52.28.88l9.12-2.36Z" transform="translate(-260.09 -193.83)"/><path class="cls-1" d="M347.32,217l16.41,11.84,4.79-6.58,12.36,23-.17.17-16.43-11.85-4.79,6.58-12.37-23Z" transform="translate(-260.09 -193.83)"/><path class="cls-1" d="M436,269.46c.78-2.17,1.53-4.24,2.18-6.06l16,15.34-.25.39-16.27-5.74-2.19,6.05L419.37,264l.26-.35Z" transform="translate(-260.09 -193.83)"/><path class="cls-1" d="M398.05,229.92c-1.3-7.72-2.6-15.44-3.91-23.24h8.08l-3.91,23.2Z" transform="translate(-260.09 -193.83)"/><path class="cls-1" d="M378,269.36l-8.3,5.6c.7,1.06,1.37,2.08,2.15,3.28l-13.3,1.89-.14-.23,8.3-5.62L364.56,271,378,269.11Z" transform="translate(-260.09 -193.83)"/><path class="cls-1" d="M341.33,257.27v-6.56l18.81,3.17v.21Z" transform="translate(-260.09 -193.83)"/><path class="cls-1" d="M419,240.83l4.56-7.63-2.93-1.81,10-6.56.23.16-4.55,7.58,2.93,1.82L419.19,241Z" transform="translate(-260.09 -193.83)"/><path class="cls-1" d="M438.22,250.53l12.38-6.25,1.48,4.69-13.78,1.85Z" transform="translate(-260.09 -193.83)"/><path class="cls-1" d="M449.46,358.05a13.74,13.74,0,0,1-13.93,13.72,13.79,13.79,0,1,1,.27-27.57A13.71,13.71,0,0,1,449.46,358.05Zm-7,0a6.74,6.74,0,1,0-6.73,6.66A6.75,6.75,0,0,0,442.43,358Z" transform="translate(-260.09 -193.83)"/><path class="cls-1" d="M383.45,358.09a13.78,13.78,0,1,1-13.76-13.88A13.78,13.78,0,0,1,383.45,358.09Zm-13.77,6.61a6.74,6.74,0,1,0-6.77-6.78A6.8,6.8,0,0,0,369.68,364.7Z" transform="translate(-260.09 -193.83)"/><rect class="cls-2" width="284.26" height="284.26"/></svg>