<svg id="Capa_3" data-name="Capa 3" xmlns="http://www.w3.org/2000/svg" viewBox="0 0 284.26 284.26"><defs><style>.cls-1{fill:#fff;}.cls-2{fill:none;}</style></defs><path class="cls-1" d="M286.15,355l1.4-5.46,8.5,2.15A55.57,55.57,0,0,1,318,322.09l-8.51,33,9.16,2.38c.77-3,1.54-5.88,2.29-8.79q4-15.56,8-31.11a1.58,1.58,0,0,1,1.23-1.25,43.27,43.27,0,0,1,23-.78c.48.11,1.16.51,1.23.87s-.42,1-.82,1.27c-3.23,2.47-6.68,4.69-9.71,7.38-7.6,6.75-12.9,15.17-16.6,24.57-5,12.6-7.73,25.64-7,39.25a52.92,52.92,0,0,0,7.28,24.87,12.37,12.37,0,0,1,.92,1.67c.15.4.29,1,.1,1.29s-.85.29-1.25.19a39.7,39.7,0,0,1-11.18-4.75,47,47,0,0,1-8.77-7,1.8,1.8,0,0,1-.51-2Q312,383.53,317,363.87c.06-.23.08-.47.15-.88l-9.1-2.37c-2.87,11.08-5.72,22.12-8.65,33.48A52.84,52.84,0,0,1,293.8,376a58.21,58.21,0,0,1,.81-18.82Z" transform="translate(-260.09 -193.83)"/><path class="cls-1" d="M486,322.16c10.91,7.41,17.92,17.34,22,29.55l8.48-2.16,1.42,5.46-8.44,2.21c2.46,12.75,1.24,25-4.82,37-2.92-11.32-5.77-22.33-8.66-33.5l-9.17,2.36,3.27,12.71c2.38,9.25,4.78,18.5,7.12,27.76a1.76,1.76,0,0,1-.33,1.43,42.27,42.27,0,0,1-19.47,11.87,8.15,8.15,0,0,1-1.92.08,6.29,6.29,0,0,1,.43-2,53.56,53.56,0,0,0,7.26-20,63.51,63.51,0,0,0,.43-16.58,128.77,128.77,0,0,0-2-13c-2.49-11.3-6.54-22-13.44-31.41a59.85,59.85,0,0,0-16.45-15.35,8,8,0,0,1-1.37-1c-.34-.33-.79-.9-.7-1.21a1.7,1.7,0,0,1,1.17-.81c1.87-.39,3.75-.78,5.65-1a44,44,0,0,1,17.14,1.65,2,2,0,0,1,1.6,1.62c3.29,12.92,6.65,25.83,10,38.74.07.26.17.52.28.87l9.12-2.35C491.71,344.23,488.9,333.34,486,322.16Z" transform="translate(-260.09 -193.83)"/><path class="cls-1" d="M402.54,217.89l.64,11.62,4.68-.24L402,243.12l-.14,0c-.21-3.85-.42-7.7-.64-11.63l-4.67.24c2-4.68,3.89-9.27,5.82-13.86Z" transform="translate(-260.09 -193.83)"/><path class="cls-1" d="M395.42,251l-24.13-15.67,6.67-7.27q8.88,11.4,17.64,22.68Z" transform="translate(-260.09 -193.83)"/><path class="cls-1" d="M389,256.28,371.85,260l1.39,6.72-22.85-5.5-.07-.45,17.11-3.8-1.4-6.72,23,5.55Z" transform="translate(-260.09 -193.83)"/><path class="cls-1" d="M382.68,278.36l-4.42-4.85,16.05-10.32.14.16C390.54,268.33,386.64,273.32,382.68,278.36Z" transform="translate(-260.09 -193.83)"/><path class="cls-1" d="M415.85,255.18l6.53-2.35-.87-2.54,9.31,1,.05.2-6.49,2.33.87,2.55-9.38-1Z" transform="translate(-260.09 -193.83)"/><path class="cls-1" d="M407.25,250l12.09-16.57,5.11,5.17-16.89,11.73Z" transform="translate(-260.09 -193.83)"/><rect class="cls-2" width="284.26" height="284.26"/><path class="cls-1" d="M410,263.19l14.37,5.59-2.7,4.54-11.74-10Z" transform="translate(-260.09 -193.83)"/><polygon class="cls-1" points="120.58 158.61 115.12 153.15 109.57 158.71 104.02 153.15 98.56 158.61 104.12 164.16 98.56 169.71 104.02 175.16 109.57 169.61 115.12 175.16 120.58 169.71 115.02 164.16 120.58 158.61"/><polygon class="cls-1" points="186.22 158.61 180.77 153.15 175.22 158.71 169.67 153.15 164.21 158.61 169.76 164.16 164.21 169.71 169.67 175.16 175.22 169.61 180.77 175.16 186.22 169.71 180.67 164.16 186.22 158.61"/><path class="cls-1" d="M480,367.63c-3.69-21.29-14.87-38.11-32.44-50.61a76,76,0,0,0-34.86-13.54c-1.8-.23-3.62-.41-5.49-.62,0-.4-.05-.75-.05-1.11q0-16.59,0-33.2a1.69,1.69,0,0,1,1-1.74,11.88,11.88,0,0,0,5.9-12.59,11.95,11.95,0,0,0-23.25-1,11.82,11.82,0,0,0,5.81,13.64,1.44,1.44,0,0,1,.91,1.46q0,16.72,0,33.45c0,.85-.23,1.15-1.13,1.24-2.81.26-5.64.5-8.42,1-16.55,3.13-30.89,10.58-42.47,22.84-18.84,20-25.83,43.71-20.64,70.57,4.35,22.54,16.91,39.84,36.41,51.95A75.3,75.3,0,0,0,395,460.56l5.45.47h3.6a4.3,4.3,0,0,1,.69-.16c3.76-.38,7.58-.49,11.29-1.15,16.84-3,31.4-10.55,43.15-23C477.58,417.2,484.59,394,480,367.63ZM369.68,377.4A19.45,19.45,0,1,1,389.13,358,19.42,19.42,0,0,1,369.68,377.4Zm32.62,57.89a14.78,14.78,0,1,1,14.78-14.78A14.78,14.78,0,0,1,402.3,435.29Zm32.95-57.89A19.44,19.44,0,1,1,454.77,358,19.39,19.39,0,0,1,435.25,377.4Z" transform="translate(-260.09 -193.83)"/><path class="cls-1" d="M293.65,345.67l-10.34-14.13-5.59,4-4.19-23.12.39-.25,10.38,14.12,5.58-4c1.45,8,2.82,15.63,4.2,23.26Z" transform="translate(-260.09 -193.83)"/><path class="cls-1" d="M285.86,365.83l-3.1,8.67,3.39,1.25-8.83,8.66-.22-.1,3.08-8.69-3.39-1.25,8.89-8.7Z" transform="translate(-260.09 -193.83)"/><path class="cls-1" d="M536.93,391,525.52,377.7l-5.26,4.41c-2-7.75-4-15.24-6-22.72l.37-.28,11.46,13.26,5.25-4.42c2.07,7.87,4,15.37,6,22.87Z" transform="translate(-260.09 -193.83)"/><path class="cls-1" d="M519.66,326.74l-3.1,8.67,3.38,1.26-8.82,8.65-.22-.09,3.08-8.69-3.39-1.25,8.89-8.7Z" transform="translate(-260.09 -193.83)"/></svg>